# xmcd CD database file
# Copyright (C) 1997 Ti Kan
# 
# Track frame offsets:
#     162
#     11370
#     21977
#     33377
#     48132
#     60675
#     73177
#     84442
#     94250
#     106150
#     117395
#     129310
#     140917
# 
# Disc length: 2050 seconds
# 
# Revision: 1
# Processed by: cddbd v1.4b41PL1 Copyright (c) Steve Scherf et al.
# Submitted via: DiscPlay 4.0.4
# 
DISCID=ae08000d
DTITLE=EDDY ARNOLD - MEMORIES ARE MADE OF THIS
DYEAR=1900
DGENRE=
TTITLE0=WELCOME TO MY WORLD
TTITLE1=ANYTIME
TTITLE2=I WANT TO GO WITH YOU
TTITLE3=MEMORIES ARE MADE OF THIS
TTITLE4=ONLY YOU
TTITLE5=YOU DON'T KNOW ME
TTITLE6=OH, OH I'M FALLING IN LOVE AGAIN
TTITLE7=I ALMOST LOST MY MIND
TTITLE8=I'LL HOLD YOU IN MY HEART
TTITLE9=DON'T ROB ANOTHER MAN'S CASTLE
TTITLE10=IF THE WHOLE WORLD STOPPED LOVIN'
TTITLE11=MAKE THE WORLD GO AWAY
TTITLE12=CATTLE CALL
EXTD=
EXTT0=
EXTT1=
EXTT2=
EXTT3=
EXTT4=
EXTT5=
EXTT6=
EXTT7=
EXTT8=
EXTT9=
EXTT10=
EXTT11=
EXTT12=
PLAYORDER=
